Coordinates
version=1
nRows=49
nColumns=12
inDegrees=yes

Units are S.I. units (second, meters, Newtons, ...)
Angles are in degrees

endheader
time	SC_y	SC_z	SC_x	AC_y	AC_z	AC_x	GH_y	GH_z	GH_yy	EL_x	PS_y
       0.0              -45.73          9.358          10.84          37.39          3.628          15.25          133.0          35.45          7.589          39.31          93.83
   0.02513              -45.73          9.359          10.84           37.4          3.627          15.25          133.0          35.44          7.569          39.31          93.83
   0.05025              -45.72          9.361          10.85           37.4          3.625          15.25          133.0          35.44          7.548          39.32          93.83
   0.07538              -45.72          9.362          10.85          37.41          3.623          15.24          132.9          35.43          7.526          39.32          93.83
    0.1005              -45.72          9.364          10.86          37.41          3.622          15.24          132.9          35.42          7.502          39.32          93.84
    0.1256              -45.72          9.365          10.86          37.41           3.62          15.23          132.8          35.41          7.477          39.33          93.84
    0.1508              -45.71          9.367          10.87          37.42          3.618          15.23          132.8           35.4           7.45          39.33          93.84
    0.1759              -45.71          9.369          10.87          37.42          3.615          15.22          132.7          35.39          7.421          39.34          93.84
     0.201              -45.71          9.371          10.88          37.43          3.613          15.21          132.6          35.38          7.391          39.34          93.84
    0.2261               -45.7          9.373          10.89          37.44          3.611          15.21          132.6          35.36          7.358          39.35          93.85
    0.2513               -45.7          9.375          10.89          37.44          3.608           15.2          132.5          35.35          7.322          39.35          93.85
    0.2764              -45.69          9.377           10.9          37.45          3.605          15.19          132.4          35.34          7.284          39.36          93.85
    0.3015              -45.69           9.38          10.91          37.46          3.602          15.18          132.3          35.32          7.243          39.37          93.85
    0.3266              -45.69          9.383          10.92          37.47          3.599          15.18          132.2           35.3          7.198          39.38          93.86
    0.3518              -45.68          9.386          10.93          37.48          3.595          15.17          132.1          35.29           7.15          39.38          93.86
    0.3769              -45.67          9.389          10.94          37.49          3.591          15.15          132.0          35.27          7.098          39.39          93.86
     0.402              -45.67          9.393          10.95           37.5          3.587          15.14          131.9          35.24          7.041           39.4          93.87
    0.4271              -45.66          9.396          10.97          37.51          3.582          15.13          131.8          35.22          6.979          39.41          93.87
    0.4523              -45.65          9.401          10.98          37.52          3.577          15.12          131.6           35.2          6.912          39.42          93.87
    0.4774              -45.64          9.405           11.0          37.53          3.571           15.1          131.5          35.17          6.838          39.44          93.88
    0.5025              -45.64           9.41          11.01          37.55          3.565          15.09          131.3          35.14          6.757          39.45          93.88
    0.5276              -45.63          9.416          11.03          37.57          3.558          15.07          131.1           35.1          6.667          39.47          93.89
    0.5528              -45.61          9.422          11.05          37.58          3.551          15.05          130.9          35.07          6.569          39.48           93.9
    0.5779               -45.6          9.429          11.08           37.6          3.543          15.03          130.7          35.02           6.46           39.5           93.9
     0.603              -45.59          9.437           11.1          37.63          3.533           15.0          130.4          34.98          6.338          39.52          93.91
    0.6281              -45.57          9.445          11.13          37.65          3.523          14.98          130.2          34.93          6.203          39.55          93.92
    0.6533              -45.56          9.455          11.16          37.68          3.512          14.95          129.8          34.87          6.051          39.57          93.93
    0.6784              -45.54          9.465           11.2          37.71          3.499          14.91          129.5           34.8           5.88           39.6          93.94
    0.7035              -45.52          9.478          11.24          37.75          3.484          14.87          129.1          34.73          5.687          39.64          93.95
    0.7287              -45.49          9.491          11.29          37.79          3.467          14.83          128.6          34.65          5.468          39.67          93.97
    0.7538              -45.46          9.507          11.34          37.84          3.448          14.78          128.1          34.55          5.217          39.72          93.99
    0.7789              -45.43          9.525           11.4          37.89          3.427          14.72          127.5          34.44           4.93          39.76           94.0
     0.804              -45.39          9.546          11.47          37.95          3.401          14.65          126.8          34.32          4.599          39.82          94.03
    0.8292              -45.35           9.57          11.55          38.02          3.372          14.58          126.0          34.17          4.214          39.89          94.05
    0.8543               -45.3          9.598          11.65          38.11          3.338          14.49          125.1           34.0          3.763          39.97          94.08
    0.8794              -45.24          9.632          11.76          38.21          3.298          14.38          124.0           33.8          3.232          40.06          94.12
    0.9045              -45.17          9.671          11.89          38.32           3.25          14.25          122.6          33.56          2.601          40.16          94.16
    0.9297              -45.08          9.719          12.05          38.46          3.193           14.1          121.1          33.27          1.844          40.29          94.21
    0.9548              -44.98          9.776          12.25          38.63          3.123          13.92          119.2          32.92         0.9286          40.45          94.27
    0.9799              -44.86          9.846          12.48          38.84          3.038          13.69          116.8           32.5        -0.1898          40.64          94.34
     1.005               -44.7          9.933          12.78           39.1          2.934          13.42          114.0          31.98          -1.57          40.88          94.43
      1.03              -44.51          10.04          13.14          39.42          2.803          13.07          110.4          31.32         -3.291          41.18          94.54
     1.055              -44.27          10.18           13.6          39.83          2.639          12.64          105.8           30.5         -5.459          41.55          94.69
      1.08              -43.96          10.35          14.18          40.34           2.43          12.09          100.1          29.45         -8.216          42.02          94.87
     1.106              -43.56          10.57          14.93           41.0          2.162          11.38          92.74          28.11         -11.74          42.63           95.1
     1.131              -43.05          10.86          15.89          41.84          1.819          10.47           83.3           26.4         -16.27          43.41          95.39
     1.156              -42.41          11.22          17.11          42.92           1.38          9.315          71.24           24.2         -22.05           44.4          95.77
     1.181              -41.59          11.67          18.65          44.27          0.829          7.858          56.08          21.44         -29.32          45.65          96.25
     1.206               -40.6          12.23          20.52          45.92         0.1571          6.083          37.61          18.08         -38.19          47.17          96.83
